HIERARCHY
ROOT Hips
{
  OFFSET -331.093 83.8371 -317.828
  CHANNELS 6 Xposition Yposition Zposition Zrotation Xrotation Yrotation
  JOINT LeftUpLeg
  {
    OFFSET 8.64259 1.95398 -2.38835
    CHANNELS 3 Zrotation Xrotation Yrotation
    JOINT LeftLeg
    {
      OFFSET 43.7702 0 0
      CHANNELS 3 Zrotation Xrotation Yrotation
      JOINT LeftFoot
      {
        OFFSET 40.6238 0 0
        CHANNELS 3 Zrotation Xrotation Yrotation
        JOINT LeftToeBase
        {
          OFFSET 12.7242 0 0
          CHANNELS 3 Zrotation Xrotation Yrotation
          End Site
          {
            OFFSET 0 0 0
          }
        }
      }
    }
  }
  JOINT RightUpLeg
  {
    OFFSET -8.2249 1.95398 -2.59336
    CHANNELS 3 Zrotation Xrotation Yrotation
    JOINT RightLeg
    {
      OFFSET 43.5653 0 0
      CHANNELS 3 Zrotation Xrotation Yrotation
      JOINT RightFoot
      {
        OFFSET 40.6238 0 0
        CHANNELS 3 Zrotation Xrotation Yrotation
        JOINT RightToeBase
        {
          OFFSET 12.7242 0 0
          CHANNELS 3 Zrotation Xrotation Yrotation
          End Site
          {
            OFFSET 0 0 0
          }
        }
      }
    }
  }
  JOINT Spine
  {
    OFFSET 0.165834 0.87714 6.61349
    CHANNELS 3 Zrotation Xrotation Yrotation
    JOINT Spine1
    {
      OFFSET 7.38963 1.71661e-005 0
      CHANNELS 3 Zrotation Xrotation Yrotation
      JOINT Spine2
      {
        OFFSET 11.9445 1.14441e-005 0
        CHANNELS 3 Zrotation Xrotation Yrotation
        JOINT Spine3
        {
          OFFSET 14.7254 4.19617e-005 0
          CHANNELS 3 Zrotation Xrotation Yrotation
          JOINT Spine4
          {
            OFFSET 10.9679 0 0
            CHANNELS 3 Zrotation Xrotation Yrotation
            JOINT RightShoulder
            {
              OFFSET 2.46616 -1.6653 3.69651
              CHANNELS 3 Zrotation Xrotation Yrotation
              JOINT RightArm
              {
                OFFSET 13.0012 0 0
                CHANNELS 3 Zrotation Xrotation Yrotation
                JOINT RightForeArm
                {
                  OFFSET 28.7848 1.62311e-005 0
                  CHANNELS 3 Zrotation Xrotation Yrotation
                  JOINT RightHand
                  {
                    OFFSET 26.5688 1.62095e-005 0
                    CHANNELS 3 Zrotation Xrotation Yrotation
                    End Site
                    {
                      OFFSET 0 0 0
                    }
                  }
                }
              }
            }
            JOINT LeftShoulder
            {
              OFFSET 2.38034 -1.29275 -3.7523
              CHANNELS 3 Zrotation Xrotation Yrotation
              JOINT LeftArm
              {
                OFFSET 16.3182 6.07031e-005 0
                CHANNELS 3 Zrotation Xrotation Yrotation
                JOINT LeftForeArm
                {
                  OFFSET 27.0901 0 0
                  CHANNELS 3 Zrotation Xrotation Yrotation
                  JOINT LeftHand
                  {
                    OFFSET 24.5451 1.51738e-005 0
                    CHANNELS 3 Zrotation Xrotation Yrotation
                    End Site
                    {
                      OFFSET 0 0 0
                    }
                  }
                }
              }
            }
            JOINT Neck
            {
              OFFSET 5.0226 -0.0266342 0
              CHANNELS 3 Zrotation Xrotation Yrotation
              JOINT Head
              {
                OFFSET 6.69364 2.86102e-005 0
                CHANNELS 3 Zrotation Xrotation Yrotation
                End Site
                {
                  OFFSET 0 0 0
                }
              }
            }
          }
        }
      }
    }
  }
}
MOTION
Frames:	14
Frame Time:	0.0416667
-26.8831 95.1988 -93.653 68.3314 83.2887 110.953 -167.816 39.0862 87.451 -92.6189 24.58 1.63257 46.5662 -10.2852 -1.98461 25.6991 -0.031738 11.7439 176.779 20.8583 97.4528 -41.6655 -0.956721 -2.51304 73.1839 -5.18883 -2.96344 34.4462 -0.404778 -1.72466 0.298649 7.68189 -90.1241 11.5188 0.536231 -0.298804 -0.152006 0.522566 -0.322124 -22.6886 0.601266 -0.123829 -2.67593 0.601259 -0.123823 90.4192 -37.8732 -102.918 31.0075 -13.1265 -8.20941 -4.92391 -1.21429 -63.6997 -18.21 -0.52769 -1.86981 -100.649 -49.8532 63.5637 -21.0441 10.644 9.79378 -1.22491 19.2253 -19.2979 19.6547 2.45199 8.59715 10.7154 -0.14251 0.782715 -2.61182 -0.349995 3.40582 
-26.028 103.438 -108.216 83.5961 81.5502 91.7605 -160.732 49.1765 79.4186 -85.6173 19.7365 -0.884121 51.044 -7.73828 -0.468539 30.7047 4.34929 11.0879 174.208 8.25447 89.3471 -29.6146 -9.9648 -3.78471 51.2816 4.30452 3.51439 31.7955 -0.84398 -5.66379 0.805594 7.72769 -89.3858 11.4127 1.88975 1.03239 -0.257203 1.93336 0.948184 -22.7968 1.49213 1.55263 -2.78416 1.49213 1.55263 91.1063 -36.0048 -102.252 31.316 -10.1414 -9.91706 -7.61222 0.463897 -80.3132 -19.4158 -0.560025 -1.90173 -95.4818 -46.6457 70.0627 -21.0964 7.46864 24.3503 -0.35169 17.8365 -20.5983 16.0196 1.79718 7.22007 5.90954 -1.31458 0.585245 0.067775 -1.38696 0.800436 
-25.1765 108.657 -121.955 80.8249 77.1244 95.1501 -160.326 52.8734 79.6012 -69.9233 22.1901 -4.80531 52.1948 -7.2407 -0.924609 35.5747 8.00046 8.77221 175.073 7.2904 89.3555 -25.1093 -12.463 -4.28518 45.9613 6.26551 5.25362 26.8245 -0.813987 -8.389 1.21717 7.65243 -89.326 11.5574 2.73686 1.06139 -0.110996 2.78092 0.939827 -22.66 2.29134 1.83512 -2.64739 2.29134 1.83512 92.1132 -32.0874 -101.551 29.9446 -8.49887 -12.9267 -13.149 3.09284 -92.6996 -14.3807 -0.507564 -1.28758 -93.3787 -43.5977 72.348 -22.5635 4.5418 36.2993 -0.230108 16.3371 -20.7605 13.6804 1.33029 5.68052 6.73941 -0.808886 2.95135 -0.891411 -1.3854 -1.16502 
-23.9954 109.735 -135.919 80.3103 74.8726 96.1761 -165.642 49.962 83.4718 -50.9831 17.1898 -6.88751 54.7805 -5.58138 -1.57904 34.193 8.07521 12.5942 174.598 6.30709 90.3881 -13.5394 -7.50878 -3.86899 49.1747 4.57218 3.68924 26.1229 -0.435446 -5.13919 1.29831 7.6025 -89.2938 11.6569 2.91354 1.10444 -0.0111451 2.95934 0.975051 -22.5624 2.44692 1.92936 -2.54973 2.44691 1.92935 92.2779 -31.2294 -101.494 25.4115 -6.20449 -15.2274 -11.3075 4.30946 -102.596 -15.6531 -0.383552 -2.50807 -91.7282 -39.99 73.9151 -25.5445 3.85036 44.7588 -1.26587 17.1044 -19.244 12.8732 1.2066 5.30768 7.59045 -0.00133244 4.29369 -2.60058 -0.868005 -2.76053 
-22.7549 105.533 -150.35 83.4075 74.8264 94.7996 -172.964 46.1902 88.1096 -35.4035 11.7167 -5.30363 59.4169 -1.82617 -0.250284 34.6739 8.71709 13.1226 172.508 5.29145 91.5653 -12.7399 -7.36525 -1.1356 50.8099 3.97055 2.97184 32.0829 -0.437056 -2.77702 1.2547 7.67373 -89.5165 11.5201 2.72234 0.683381 -0.148095 2.74978 0.56281 -22.7004 2.39104 1.47034 -2.68777 2.39105 1.47034 92.4865 -32.1771 -100.807 20.8314 -1.50309 -16.8621 -7.84685 5.87886 -108.57 -14.5674 -0.383249 -2.24371 -91.3594 -38.8309 74.1811 -25.0217 2.55446 49.1329 -0.912549 20.579 -17.8813 10.2633 1.02539 5.67529 7.89069 0.666555 5.49317 -4.22516 -0.431282 -2.78263 
-21.3631 97.7391 -164.598 93.3783 74.8466 85.1543 -177.695 43.0338 90.7184 -23.4258 8.35614 -2.57965 61.5591 0.681233 0.615453 37.6138 12.4457 15.2181 173.762 -0.0860032 90.0858 -28.9238 -5.452 -4.77763 70.5582 -4.56542 -2.36605 42.108 -1.26379 -4.17114 1.25316 7.97857 -89.5186 10.9101 2.71768 0.701666 -0.758153 2.74592 0.581289 -23.3103 2.38111 1.48638 -3.29765 2.38112 1.48638 92.4053 -33.2516 -100.648 19.1171 -0.0506409 -18.899 -8.5393 3.85855 -109.209 -22.245 -0.537182 -2.40985 -91.2999 -40.2339 74.6967 -21.1661 2.7316 49.1005 -0.989975 21.2844 -16.5454 9.61567 0.979082 5.91487 7.95051 0.781175 5.97597 -3.69424 -0.425279 -3.71375 
-20.513 92.4356 -180.926 87.755 73.5836 92.4586 -178.952 44.3482 93.7387 -19.08 6.6546 -2.0508 63.2644 3.16411 3.05785 39.0478 14.4957 16.5529 172.145 -8.29922 90.1261 -30.5097 -6.0669 -6.14311 76.6282 -7.57488 -3.79973 52.3957 -1.97784 -4.617 1.44502 7.79703 -89.6046 11.2763 3.05986 0.483702 -0.391126 3.0782 0.348419 -22.9504 2.77293 1.3816 -2.93771 2.77293 1.3816 91.0441 -34.3448 -102.875 21.1042 -5.53483 -17.5414 -13.2062 4.06969 -98.3643 -22.6495 -0.348111 -3.49747 -92.4247 -45.2253 74.3218 -18.0485 0.105573 39.6226 -0.161567 19.0596 -14.4928 15.8762 2.16119 9.58199 10.4408 0.759808 5.88285 -6.14378 -0.443334 -4.57092 
-20.6102 90.9644 -199.986 83.2342 69.9925 96.7113 -175.558 43.2674 91.993 -28.7922 6.27688 -3.35156 62.4184 2.64954 4.70491 40.884 13.957 11.422 171.744 -7.73724 83.1866 -40.5841 -16.0608 -8.76888 57.1506 1.71818 1.29872 53.3605 -2.64735 -6.91121 1.7558 7.48576 -89.2651 11.8875 3.83755 1.05456 0.221941 3.88022 0.884412 -22.3465 3.34305 2.16016 -2.33382 3.34305 2.16016 90.9028 -35.395 -102.808 27.4567 -16.581 -12.1636 -10.7342 0.425669 -75.3975 -23.536 -0.44173 -3.07929 -93.3852 -48.0327 73.6473 -20.7091 -1.48602 26.2915 0.506262 7.44828 -20.3313 11.9561 1.1558 5.59133 12.3796 0.52396 1.65898 -7.72421 0.247707 -2.84298 
-20.3758 89.7288 -218.675 80.1788 76.9235 98.6894 -172.015 41.2212 85.0845 -43.7017 12.2242 -4.83132 60.707 0.750358 4.96237 36.2865 5.60374 -0.323478 178.266 3.039 83.4892 -66.7844 -9.40774 -8.04017 37.5219 9.5834 8.71405 20.3952 -0.285023 -8.30786 0.795435 7.39291 -89.0589 12.0688 2.0253 1.65396 0.398218 2.09612 1.56322 -22.1333 1.43477 2.186 -2.12062 1.43477 2.186 90.2842 -36.7639 -103.506 33.3717 -21.9686 -2.58086 -4.95875 -6.33083 -51.4907 -28.3683 -0.984688 -1.21457 -98.7378 -50.9725 66.7093 -20.7058 5.27474 9.07171 -0.588149 4.19842 -27.9284 15.2447 1.23727 4.08781 13.2721 0.616478 0.571776 -9.96983 0.704911 -3.61769 
-20.4389 91.5272 -235.081 85.811 84.0445 94.2123 -173.716 31.3692 82.7985 -50.0301 13.175 -3.03654 67.9283 6.46106 6.10707 35.701 3.98988 -3.92805 -179.446 25.4531 87.2348 -98.558 -1.86543 -3.70986 34.8871 7.95471 7.45245 18.2238 0.0249078 -6.34487 0.0288543 7.52592 -89.1313 11.8112 0.466 1.68504 0.139274 0.539703 1.6629 -22.3873 -0.0618757 1.74718 -2.37468 -0.0618841 1.74718 89.1382 -41.5828 -104.023 34.7387 -18.5648 10.663 -4.55131 -10.806 -40.3001 -19.4108 -1.14421 1.79953 -99.6963 -49.3808 64.7564 -17.3338 6.30758 -12.0545 2.21941 4.40741 -36.509 20.6795 1.99004 5.79832 11.6826 0.0618168 -1.59819 -9.76998 0.646882 -2.95848 
-21.0894 98.2533 -251.751 113.851 84.1389 70.8024 -175.855 10.7251 87.5438 -35.2154 16.5072 -0.750894 64.316 2.92189 3.08887 35.1557 6.09943 4.21136 172.302 46.8366 96.1935 -112.903 4.33515 -2.68549 41.4216 4.52957 3.66489 17.8065 -0.0342663 -10.2547 -0.508463 7.60026 -89.8753 11.6751 -0.952857 0.348008 0.00443495 -0.936616 0.389606 -22.5335 -1.01339 0.0455195 -2.52087 -1.01339 0.0455158 89.4637 -41.0489 -103.629 34.1956 -18.7831 21.1665 -8.62654 -20.6362 -37.7471 -3.28831 -0.308361 1.83732 -97.465 -48.3088 67.6429 -16.8485 4.22204 -18.9783 8.63606 3.47319 -55.5423 21.4566 2.00094 5.51853 9.97861 3.89784 -0.257748 -11.7706 3.87852 0.0657349 
-20.602 105.854 -268.511 168.655 87.1065 18.3758 -175.034 0.75296 91.1582 -22.8255 21.1793 0.13889 42.8813 -11.4313 -5.64602 21.9236 -3.48028 11.3622 160.158 58.1286 108.849 -112.692 -0.520095 -2.03701 47.2726 4.08406 2.64375 25.242 -0.606287 -7.66833 -1.15486 7.5967 -90.2443 11.6781 -2.4116 -0.234966 0.009408 -2.4196 -0.128536 -22.5416 -2.22942 -0.949238 -2.52896 -2.22942 -0.949244 89.8671 -42.001 -102.672 33.5529 -17.5091 31.5334 -10.3333 -21.5137 -39.4176 4.32567 0.151041 2.75511 -93.919 -44.141 71.6697 -14.9986 5.80562 -24.0331 13.9509 0.31394 -70.6714 40.2405 2.73186 3.08381 6.45973 4.82413 -1.99484 -9.34307 4.98775 2.37091 
-20.6933 110.748 -284.314 -141.013 85.6015 -32.8916 -176.141 0.607941 90.222 -14.58 19.5058 0.173229 47.4182 -8.17401 -4.46195 24.2059 -1.60592 10.5314 163.389 59.8833 107.062 -104.308 -2.64645 -1.31942 52.6818 2.642 1.31761 30.0011 -0.986906 -7.41771 -1.34389 7.7009 -90.1223 11.4759 -2.73085 0.0346492 -0.192155 -2.72667 0.154898 -22.7491 -2.61492 -0.788253 -2.73643 -2.61492 -0.788258 90.1936 -40.6569 -102.502 36.6403 -11.9185 39.9759 -8.21044 -17.0097 -36.8131 2.19118 0.0247679 2.14661 -91.6445 -40.9534 74.3359 -14.4692 3.02818 -29.0656 25.2244 -5.58778 -84.4234 47.6802 -4.49461 -13.9026 6.36079 3.87124 -3.63578 -9.93155 4.29037 3.1804 
-20.8502 111.028 -300.577 -121.107 84.5992 -53.8179 -176.609 4.03251 89.2377 -5.92 7.71388 -0.585452 50.7253 -7.84241 -5.62262 28.4756 1.91541 9.448 171.724 56.6521 100.565 -90.0881 -2.2727 -0.817523 55.1999 1.89322 0.924733 31.5495 -1.71428 -11.6425 -1.40974 7.64957 -90.0758 11.5797 -2.83989 0.141909 -0.0881874 -2.83088 0.266848 -22.6472 -2.75113 -0.718818 -2.63454 -2.75113 -0.718823 90.4274 -37.6247 -102.99 39.3213 -6.72623 45.5757 -8.48153 -13.54 -36.7116 2.31028 0.0622071 2.3942 -90.6467 -40.1805 75.7614 -16.2764 -4.52346 -32.446 21.6961 -11.0602 -97.1487 45.3897 -15.8131 -35.8697 6.16987 3.3514 -3.98131 -10.6975 3.75281 4.22533 
